<?xml version="1.0" encoding="utf-8"?>
<!-- Generator: Adobe Illustrator 25.2.1, SVG Export Plug-In . SVG Version: 6.00 Build 0)  -->
<svg version="1.1" id="Layer_1" xmlns="http://www.w3.org/2000/svg" xmlns:xlink="http://www.w3.org/1999/xlink" x="0px" y="0px"
	 viewBox="0 0 931 693" style="enable-background:new 0 0 931 693;" xml:space="preserve">
<style type="text/css">
	.st0{fill:#FFFFFF;}
</style>
<path class="st0" d="M849.71,609.96c84.94-81.09,105.24-246.64,26.56-361.75C810.69,152.27,689.9,53.58,537.69,24.81
	C385.47-3.96,252.12-3.93,194.45,34.08c-47.19,31.1-25.26,74.42-10.46,111.23c19.76,49.14,22.67,88.15-58.61,159.54
	C32.6,386.33,7.49,416.92,2.83,495.71C-0.95,559.79,52.55,646,122.76,658.35c97.74,17.2,134.01-28.22,229.63-58.84
	c76.71-24.56,129.91-13.08,199.45,34C621.39,680.58,725.05,728.96,849.71,609.96z"/>
</svg>
