<?xml version="1.0" encoding="utf-8"?>
<!-- Generator: Adobe Illustrator 24.0.2, SVG Export Plug-In . SVG Version: 6.00 Build 0)  -->
<svg version="1.1" id="Capa_1" xmlns="http://www.w3.org/2000/svg" xmlns:xlink="http://www.w3.org/1999/xlink" x="0px" y="0px"
	 viewBox="0 0 1329 540" style="enable-background:new 0 0 1329 540;" xml:space="preserve">
<style type="text/css">
	.st0{fill:#FFFFFF;}
	.st1{fill:#00B3D3;}
</style>
<g>
	<path class="st0" d="M382.3,473H106.7C82.56,473,63,453.44,63,429.3V105.7C63,81.56,82.56,62,106.7,62h275.6
		c24.13,0,43.7,19.56,43.7,43.7v323.6C426,453.44,406.44,473,382.3,473z"/>
	<path class="st1" d="M391.52,480H97.02C78.23,480,63,464.77,63,445.98V435h363v10.52C426,464.56,410.56,480,391.52,480z"/>
</g>
<g>
	<path class="st0" d="M802.3,473H526.7c-24.13,0-43.7-19.56-43.7-43.7V105.7c0-24.13,19.56-43.7,43.7-43.7h275.6
		c24.13,0,43.7,19.56,43.7,43.7v323.6C846,453.44,826.44,473,802.3,473z"/>
	<path class="st1" d="M811.52,480h-294.5c-18.79,0-34.02-15.23-34.02-34.02V435h363v10.52C846,464.56,830.56,480,811.52,480z"/>
</g>
<g>
	<path class="st0" d="M1220.3,473H944.7c-24.13,0-43.7-19.56-43.7-43.7V105.7c0-24.13,19.56-43.7,43.7-43.7h275.6
		c24.13,0,43.7,19.56,43.7,43.7v323.6C1264,453.44,1244.44,473,1220.3,473z"/>
	<path class="st1" d="M1229.52,480h-294.5c-18.79,0-34.02-15.23-34.02-34.02V435h363v10.52C1264,464.56,1248.56,480,1229.52,480z"/>
</g>
</svg>
