<?xml version="1.0" encoding="utf-8"?>
<!-- Generator: Adobe Illustrator 24.0.2, SVG Export Plug-In . SVG Version: 6.00 Build 0)  -->
<svg version="1.1" id="Capa_1" xmlns="http://www.w3.org/2000/svg" xmlns:xlink="http://www.w3.org/1999/xlink" x="0px" y="0px"
	 viewBox="0 0 1080 1080" style="enable-background:new 0 0 1080 1080;" xml:space="preserve">
<style type="text/css">
	.st0{fill:#E0E6F2;}
</style>
<path class="st0" d="M207.5,413.78c5.01,29.39-7.18,58.96-31.11,76.74C71.55,568.45,22.44,675.91,47.39,761.3
	c10.46,35.8,36.77,77.4,80.24,101.35c100.51,55.39,199.2-35.12,354.73-46.45c163.59-11.93,194.16,115.31,329.39,92.91
	c85.22-14.12,169.1-72.8,206.93-152.03c91.91-192.52-129.15-420.49-139.36-430.75C710.54,156.71,442.47,124.51,309.22,203.86
	c-18.86,11.23-63.95,38.08-88.68,92.91C201.34,339.31,202.04,381.77,207.5,413.78z"/>
</svg>
