<?xml version="1.0" encoding="utf-8"?>
<!-- Generator: Adobe Illustrator 24.0.2, SVG Export Plug-In . SVG Version: 6.00 Build 0)  -->
<svg version="1.1" id="Capa_1" xmlns="http://www.w3.org/2000/svg" xmlns:xlink="http://www.w3.org/1999/xlink" x="0px" y="0px"
	 viewBox="0 0 103.97 103.97" style="enable-background:new 0 0 103.97 103.97;" xml:space="preserve">
<style type="text/css">
	.st0{fill:#02C4A2;}
</style>
<path class="st0" d="M47.23,56.11c2.58,1.72,7.1,1.72,9.68,0c0,0,0,0,0,0l43.96-29.3c-1.44-4.17-5.4-7.17-10.06-7.17H13.33
	c-4.65,0-8.62,3-10.06,7.17L47.23,56.11C47.23,56.11,47.23,56.11,47.23,56.11L47.23,56.11z"/>
<path class="st0" d="M60.12,60.93C60.12,60.93,60.12,60.93,60.12,60.93c-2.26,1.51-5.16,2.26-8.05,2.26c-2.9,0-5.79-0.75-8.05-2.26
	c0,0,0,0,0,0L2.68,33.37v49.59c0,5.87,4.77,10.64,10.64,10.64h77.48c5.87,0,10.64-4.77,10.64-10.64V33.37L60.12,60.93z"/>
</svg>
