<?xml version="1.0" encoding="utf-8"?>
<!-- Generator: Adobe Illustrator 24.0.2, SVG Export Plug-In . SVG Version: 6.00 Build 0)  -->
<svg version="1.1" id="Capa_1" xmlns="http://www.w3.org/2000/svg" xmlns:xlink="http://www.w3.org/1999/xlink" x="0px" y="0px"
	 viewBox="0 0 102.45 102.45" style="enable-background:new 0 0 102.45 102.45;" xml:space="preserve">
<style type="text/css">
	.st0{fill:#01C4A2;}
</style>
<g>
	<g>
		<path class="st0" d="M94.32,31.23h-2.75v30.21c0,4.7-2.74,8.96-8.23,8.96h-53.8v1.44c0,4.16,4.73,8.36,9.59,8.36h41.13l15.74,9.25
			l-2.28-9.25h0.6c4.85,0,7.04-4.19,7.04-8.36V38.4C101.36,34.24,99.17,31.23,94.32,31.23z"/>
		<g>
			<g>
				<path class="st0" d="M75.31,10.24H12.82C7.33,10.24,1,15.12,1,19.83V57.7c0,4.34,5.36,7.47,10.5,7.95l-3.35,12.7L29.6,65.74
					h45.71c5.5,0,10.57-3.33,10.57-8.04V27.06v-7.23C85.88,15.12,80.8,10.24,75.31,10.24z"/>
			</g>
		</g>
	</g>
</g>
</svg>
