<?xml version="1.0" encoding="utf-8"?>
<!-- Generator: Adobe Illustrator 25.2.1, SVG Export Plug-In . SVG Version: 6.00 Build 0)  -->
<svg version="1.1" id="Layer_1" xmlns="http://www.w3.org/2000/svg" xmlns:xlink="http://www.w3.org/1999/xlink" x="0px" y="0px"
	 viewBox="0 0 402 403" style="enable-background:new 0 0 402 403;" xml:space="preserve">
<g>
	<path d="M255.34,96.53c0,3.77,0,7.54,0,11.96c-3.46,0.43-6.8,0.85-10.69,1.34c-0.48,3.64-0.96,7.27-1.48,11.25
		c-3.65,0-7.06,0-10.87,0c-0.4-3.7-0.78-7.1-1.22-11.16c-7.78,0-15.41,0-23.32,0c-0.42,3.68-0.81,7.1-1.27,11.02
		c-7.67,0-15.12,0-23.04,0c-0.53-3.61-1.07-7.23-1.65-11.16c-3.7-0.37-7.1-0.71-10.82-1.09c-0.39-3.63-0.75-7.05-1.18-11.07
		c-3.48,0-6.81,0-10.86,0c-0.49,3.53-0.99,7.14-1.54,11.16c-3.58,0-6.97,0-10.95,0c0-11.72,0-23.18,0-35.11
		c3.75-0.43,7.12-0.81,11.04-1.26c0-3.57,0-6.91,0-10.78c-3.56-0.49-6.91-0.95-10.87-1.5c-0.45-3.32-0.9-6.68-1.45-10.79
		c-3.27,0-6.58,0-11.24,0c0,11.46,0,23.21,0,35.43c-4.67,0-8.02,0-12.39,0c0-11.74,0-23.27,0-35.8c-8.37,0-15.79,0-23.94,0
		c0-4.55,0-8.09,0-12.02c3.58-0.45,6.96-0.88,10.87-1.37c0-3.57,0-6.9,0-10.74c-3.6-0.48-6.95-0.93-10.95-1.46
		c0-3.62,0-7.16,0-11.12c3.81-0.36,7.19-0.68,10.99-1.04c0.36-3.8,0.68-7.17,1.05-11.09c3.74,0,7.09,0,11.45,0
		c0,7.46,0,14.9,0,23.09c4.52,0,8.06,0,11.87,0c0.48-3.71,0.93-7.08,1.43-10.92c7.74,0,15.17,0,23.18,0c0,3.67,0,7.02,0,10.99
		c-3.35,0.43-6.72,0.86-10.86,1.39c0,7.4,0,14.79,0,23.03c15.58,0,31.35,0,48.17,0c0-7.73,0-15.16,0-22.98
		c4.34-0.5,7.73-0.89,11.68-1.34c0-3.51,0-6.86,0-11.24c-7.57,0-15,0-23.13,0c0-4.56,0-8.1,0-12.14c7.74,0,15.17,0,23.12,0
		c0.4,3.74,0.77,7.11,1.19,11c3.51,0.45,6.88,0.88,10.96,1.4c0.4,3.25,0.81,6.61,1.33,10.82c3.38,0.45,6.97,0.92,11.54,1.52
		c0,7.6,0,15.04,0,23.09c4.32,0,7.64,0,11.58,0c0.46-3.4,0.91-6.75,1.46-10.77c3.23-0.45,6.59-0.92,10.45-1.46
		c0.32-3.31,0.65-6.73,1.05-10.84c3.57-0.43,7.2-0.86,11.22-1.35c0.33-3.59,0.64-7,1-10.92c3.73-0.46,7.37-0.9,11.4-1.39
		c0.27-3.69,0.51-7.09,0.8-11c3.77,0,7.14,0,11.18,0c0,3.62,0,7.2,0,11.07c-3.62,0.39-7.05,0.75-10.99,1.17
		c-0.35,3.51-0.69,6.9-1.09,10.92c-3.62,0.47-7.24,0.94-11.29,1.46c0,3.59,0,6.98,0,10.84c3.62,0.42,7,0.82,11.01,1.28
		c0.48,3.55,0.96,7.13,1.5,11.16c3.63,0,6.99,0,10.89,0c0.38-3.58,0.73-6.96,1.16-11.03c3.59,0,7.19,0,11.26,0
		c0,3.58,0,6.96,0,10.77c-3.78,0.51-7.4,0.99-11.24,1.51c-0.37,3.75-0.72,7.17-1.09,10.89c-3.63,0.39-7.05,0.77-11.07,1.2
		c0,7.58,0,14.98,0,23.15c3.54,0,7.07,0,11.2,0c0.27-3.51,0.53-6.89,0.84-10.84c3.66,0,7.03,0,11.36,0c0,7.65,0,15.35,0,23.05
		l0.21-0.21c-7.73,0-15.47,0-23.65,0c-0.36-3.48-0.68-6.56-1.07-10.42c-3.52,0-7.06,0-11.13,0c-0.37,3.26-0.76,6.6-1.22,10.66
		c-4.2,0-8.16,0-12.12,0c0-3.64,0-7.27,0-11c-3.96-0.35-7.08-0.63-10.5-0.93c0-4.05,0-7.59,0-11.24c3.82-0.41,6.96-0.75,10.3-1.12
		c0-7.94,0-15.64,0-23.38c-3.76,0-6.86,0-10.27,0c-0.55,4.03-1.04,7.62-1.51,11.04c-4.07,0-7.41,0-10.89,0
		c-0.49-3.98-0.91-7.33-1.37-11.01c-11.94,0-23.42,0-35.43,0c0,3.9,0,7.22,0,10.86c4.03,0.6,7.62,1.14,11.01,1.65
		c0,8.11,0,15.53,0,23.04c-4,0.51-7.36,0.94-10.85,1.38c0,7.87,0,15.22,0,22.63c4.12,0,7.48,0,10.83,0
		c0.59-4.13,1.1-7.75,1.58-11.16c4.12-0.49,7.48-0.88,11.56-1.37c0-7.74,0-14.93,0-22.35c4.36,0,7.9,0,12.26,0
		c0,11.96,0,23.21,0,34.74c4.38,0,7.92,0,11.63,0c0.18-2.38,0.25-4.12,0.45-5.84c0.2-1.69,0.52-3.37,0.82-5.26
		C248.45,97.12,251.89,96.83,255.34,96.53z M268.83,49.11c-2.03,12.04-1.14,12.9,10.54,10.52c0-3.5,0-7.02,0-10.52
		C275.37,49.11,272.05,49.11,268.83,49.11z M255.89,48.11c4.17,0,7.51,0,11.35,0c0-3.95,0-7.5,0-11.03c-4.07,0-7.57,0-11.35,0
		C255.89,40.91,255.89,43.98,255.89,48.11z M256.09,84.83c4.01,0,7.35,0,11.12,0c0-3.99,0-7.54,0-11.32c-3.92,0-7.26,0-11.12,0
		C256.09,77.26,256.09,80.56,256.09,84.83z M170.66,96.2c4.44,0,7.94,0,11.94,0c-0.18-3.83-0.32-6.88-0.47-10.04
		c-4.24,0-7.74,0-11.47,0C170.66,89.83,170.66,92.69,170.66,96.2z M134.41,48.06c-1.18-4.65-1.24-8.63-3.2-11.07
		c-1.09-1.36-7.19-1.13-7.85,0.1c-1.63,3.04-1.43,7.06-2.01,10.97C126.12,48.06,129.2,48.06,134.41,48.06z M206.56,34.66
		c0.83,0.72,1.66,1.45,2.49,2.17c3.3-0.92,7.48-0.98,9.59-3.09c1.37-1.36,0.68-6.51-0.91-8.53c-1.17-1.48-6.8-1.83-7.77-0.59
		C207.9,27.24,207.59,31.24,206.56,34.66z M193.21,85.89c0.73-0.83,1.46-1.65,2.18-2.48c-0.9-3.31-0.92-7.49-3.02-9.62
		c-1.35-1.37-6.5-0.7-8.54,0.88c-1.49,1.15-1.86,6.77-0.63,7.76C185.8,84.51,189.79,84.84,193.21,85.89z M170.92,74.65
		c-0.82-0.72-1.64-1.45-2.46-2.17c-3.31,0.94-7.48,1.01-9.61,3.13c-1.36,1.35-0.66,6.51,0.93,8.52c1.17,1.48,6.81,1.82,7.78,0.57
		C169.61,82.08,169.9,78.08,170.92,74.65z"/>
	<path d="M267.33,353.83c0.29,3.74,0.58,7.47,0.95,12.21c7.79,0,15.49,0,23.59,0c0,4.41,0,7.79,0,11.85
		c-3.57,0.35-7.19,0.7-11.28,1.09c-0.31,3.6-0.61,7.01-0.99,11.43c-7.57,0-15.25,0-23.4,0c-0.39,4.34-0.7,7.73-1.07,11.84
		c-7.3,0-14.68,0-22.79,0c0-3.25,0-6.84,0-11.07c3.35-0.27,6.71-0.54,10.8-0.88c0-7.71,0-15.37,0-23.81c-7.5,0-14.98,0-23.03,0
		c-0.47-4.34-0.86-8-1.3-12.09c-3.54,0-6.94,0-11.01,0c-0.41,3.62-0.82,7.23-1.28,11.28c-3.54,0.31-6.91,0.6-10.96,0.95
		c0,7.76,0,15.42,0,23.83c7.63,0,15.12,0,23.19,0c0,4.35,0,7.97,0,12.04c-7.75,0-15.22,0-23.25,0c-0.39-3.66-0.78-7.33-1.22-11.38
		c-3.62,0-7.02,0-11.01,0c-0.41,3.74-0.82,7.37-1.26,11.4c-3.6,0-6.99,0-11,0c-0.39-3.67-0.78-7.32-1.21-11.39
		c-3.56,0-6.97,0-11.01,0c-0.41,3.66-0.81,7.29-1.27,11.35c-3.57,0-6.95,0-11,0c0-7.7,0-15.37,0-23.51
		c3.47-0.31,6.84-0.61,10.88-0.96c0-3.67,0-7.24,0-11.3c-3.49-0.3-6.89-0.59-10.9-0.94c-0.39-3.66-0.78-7.32-1.21-11.39
		c-3.55,0-6.94,0-11.41,0c0,7.84,0,15.55,0,23.65c-4.48,0-7.88,0-12.35,0c0-7.77,0-15.45,0-23.59c-4.42,0-7.78,0-12.21,0
		c0,16.04,0,31.92,0,48.14c-4.48,0-7.89,0-11.89,0c0-20.14,0-40.09,0-60.39c3.66-0.3,7.05-0.59,11.03-0.92c0-3.79,0-7.36,0-11.43
		c-3.69-0.26-7.1-0.5-11.06-0.77c0-7.91,0-15.62,0-24.06c7.87,0,15.36,0,23.23,0c0.48-4.3,0.89-7.96,1.34-11.95
		c3.67,0,7.08,0,11.56,0c0,7.87,0,15.57,0,23.99c8.51,0,15.99,0,24.01,0c0,4.37,0,7.99,0,12c-3.75,0.26-7.14,0.5-11.08,0.78
		c0,7.76,0,15.21,0,23.39c11.64,0,23.37,0,35.62,0c0-3.45,0-6.84,0-10.97c-3.51-0.33-7.13-0.66-11.16-1.04c0-3.91,0-7.54,0-11.41
		c3.93-0.26,7.34-0.48,11.11-0.72c0.43-4.01,0.83-7.66,1.25-11.57c3.78,0,7.21,0,11.03,0c0.34,3.71,0.65,7.15,1.03,11.32
		c3.56,0.35,7.17,0.7,11.21,1.09c0.34,3.54,0.67,6.97,1.06,11.08c3.57,0,7.12,0,11.17,0c0.4-3.6,0.8-7.26,1.24-11.22
		c3.7,0,7.13,0,11.08,0c0,3.86,0,7.5,0,11.53c-3.8,0.27-7.19,0.5-11.12,0.78c0,3.68,0,7.05,0,11.14c7.53,0,15.16,0,23.87,0
		c0-7.76,0-15.49,0-23.65c8.62,0,16.16,0,23.71,0c0,0-0.2-0.25-0.2-0.25c0,4.17,0,8.33,0,12.5l0.25-0.25
		c-3.94,0.22-7.88,0.44-11.52,0.65c-0.53,4.39-0.94,7.82-1.34,11.27c-3.35,0.33-6.71,0.64-10.22,0.97c0,4.03,0,7.56,0,11.16
		c3.93,0,7.22,0,11.32,0c-0.49-4.55-0.9-8.46-1.32-12.37c4.36,0.27,8.72,0.55,13.09,0.82L267.33,353.83z M133.09,329.91
		c-4,0-7.35,0-11.15,0c0,8.06,0,15.68,0,23.62c3.94,0,7.28,0,11.15,0C133.09,345.68,133.09,338.24,133.09,329.91z M194.41,354.56
		c-3.69,0-7.28,0-11.14,0c0,3.9,0,7.45,0,11.2c3.99,0,7.34,0,11.14,0C194.41,361.93,194.41,358.54,194.41,354.56z M182.16,390.26
		c0-4.1,0-7.48,0-11.19c-4.04,0-7.62,0-11.32,0c0,3.98,0,7.36,0,11.19C174.62,390.26,177.98,390.26,182.16,390.26z"/>
	<path d="M389.22,316.53c0.45,3.89,0.9,7.77,1.42,12.25c-4.4,0.45-7.98,0.82-12.03,1.24c-0.34,3.74-0.66,7.33-1.03,11.38
		c-3.71,0.21-7.1,0.41-10.9,0.63c-0.63,4.23-1.25,8.38-1.85,12.51c0.01-0.01,0.28-0.23,0.28-0.23c-3.46,0-6.92,0-11,0
		c-0.32,3.71-0.64,7.35-0.99,11.45c-3.59,0.27-6.99,0.53-11.12,0.84c-0.38,3.56-0.76,7.18-1.2,11.34c-11.7,0-23.45,0-36.21,0
		c0-7.92,0-15.61,0-23.62c-4.37-0.26-7.75-0.47-11.65-0.7c-0.39-3.84-0.76-7.46-1.23-12.07c-4.16,0-8.15,0-12.14,0l0.3,0.28
		c0-3.88,0-7.76,0-12.5c-4.67,0-8.59,0-12.5,0c0,0,0.2,0.25,0.2,0.25c0.18-3.74,0.36-7.48,0.59-12.24c7.93,0,15.63,0,23.72,0
		c0-8.49,0-15.95,0-24.02c-3.66,0-7.23,0-11.34,0c-0.28,3.55-0.55,6.97-0.87,11.01c-3.56,0-7.16,0-11.28,0
		c-0.36-3.64-0.72-7.26-1.12-11.23c-3.76,0-7.14,0-11.11,0c-0.38,3.76-0.74,7.39-1.14,11.36c-3.6,0.34-6.99,0.66-10.61,1.01
		c-0.33,3.73-0.64,7.15-0.99,11.14c-3.74,0-7.31,0-11.33,0c0-3.6,0-6.99,0-11.06c3.46-0.31,6.81-0.62,11.33-1.03
		c0-7.51,0-15.18,0-23.77c8.5,0,15.91,0,23.9,0c0.33-4.49,0.6-8.1,0.92-12.43c4.17,0,7.88,0,11.58,0l-0.2-0.25
		c0.33,3.95,0.67,7.89,1.08,12.78c8.24,0,15.89,0,23.41,0c0.39,4.4,0.69,7.78,1,11.23c12.32,0,24.07,0,35.75,0
		c0-4.02,0-7.42,0-11.09c-4.01-0.41-7.62-0.78-11.99-1.23c0-4.21,0-7.95,0-11.68l-0.25,0.25c8.07,0,16.14,0,25.15,0
		c-0.4-4.61-0.72-8.26-1.04-11.9l-0.21,0.22c4.17-0.25,8.33-0.5,13.42-0.8c0,8.7,0,16.32,0,24.72c4.56,0,8.24,0,11.93,0l-0.28-0.26
		c0.18,3.73,0.36,7.47,0.58,12.17c-8.17,0-15.84,0-24.06,0c0,8.58,0,16.22,0,24.29c3.74,0,7.1,0,11.07,0
		c0.37-3.6,0.75-7.2,1.17-11.29c3.79,0,7.36,0,11.4,0c0.19,3.71,0.37,7.1,0.58,11.21c3.87,0,7.48,0,11.08,0L389.22,316.53z
		 M305.01,341.22c12.14,0,23.83,0,35.75,0c0-12.19,0-23.89,0-35.6c-12.26,0-23.94,0-35.75,0
		C305.01,317.78,305.01,329.26,305.01,341.22z M317.35,354.42c0,4.41,0,7.75,0,11.22c4.09,0,7.64,0,11.06,0c0-4.15,0-7.71,0-11.22
		C324.4,354.42,321.06,354.42,317.35,354.42z"/>
	<path d="M73.37,108.99c0-3.7,0-7.4,0-11.56c19.93,0,39.37,0,59.51,0c0,3.64,0,7.24,0,11.24c-3.52,0.36-6.89,0.71-10.87,1.11
		c0,7.72,0,15.15,0,23.26c3.55,0,7.14,0,10.98,0c0.42-3.63,0.81-7.04,1.26-10.99c7.65,0,15.07,0,23.16,0c0,3.59,0,7.19,0,11.15
		c-3.63,0.36-7.01,0.69-10.94,1.07c0,7.81,0,15.24,0,23.57c15.65,0,31.28,0,47.52,0c0.54,4.41,0.98,8.04,1.47,12.08
		c3.55,0.33,6.95,0.65,10.98,1.02c0,3.73,0,7.33,0,11.27c-3.67,0.35-7.05,0.68-10.86,1.05c-0.44,3.69-0.83,7.07-1.3,10.99
		c-3.66,0.46-7.27,0.92-11.08,1.4c-0.4,3.71-0.76,7.13-1.18,11.05c-3.58,0-6.94,0-10.92,0c-0.47-3.61-0.94-7.23-1.46-11.26
		c-3.61,0-6.98,0-10.81,0c-0.44,3.75-0.84,7.13-1.31,11.14c-3.67,0-7.24,0-11.21,0c0-7.75,0-15.23,0-23.22
		c3.74-0.39,7.1-0.74,11.11-1.15c0-3.65,0-7.2,0-11.19c-3.82-0.38-7.21-0.71-10.93-1.08c-0.38-3.62-0.75-7.04-1.18-11.07
		c-3.73,0-7.3,0-11.1,0c-0.41,3.77-0.79,7.2-1.2,10.99c-3.57,0.38-6.94,0.74-11.16,1.19c-0.16,3.54-0.3,6.89-0.48,10.98
		c3.78,0.38,7.14,0.73,11.68,1.19c0.17,3.38,0.34,6.94,0.55,11.02c-4.25,0.52-7.87,0.96-11.66,1.42c-0.4,3.74-0.76,7.17-1.18,11.06
		c-3.6,0-6.97,0-10.86,0c-0.5-3.68-1-7.3-1.65-12.08c-7.64,0-15.17,0-22.7,0c0,0,0.22,0.2,0.22,0.2c-0.36-3.67-0.72-7.34-1.18-12.02
		c-7.83,0-15.46,0-23.41,0c0-4.98,0-8.92,0-12.86l-0.32,0.34c11.76,0,23.52,0,35.52,0c0-4.31,0-7.68,0-12.3c-8,0-15.57,0-23.58,0
		c0.24-5.01,0.41-8.74,0.59-12.47l-0.27,0.27c3.87,0,7.73,0,11.51,0c0-4.59,0-7.9,0-11.56c-4.17-0.34-7.83-0.64-11.49-0.93
		l0.22,0.22c0.01-4.17,0.02-8.34,0.03-12.51l-0.27,0.27c3.87,0,7.73,0,11.51,0c0-4.59,0-7.9,0-11.56
		c-4.17-0.34-7.83-0.63-11.49-0.93L73.37,108.99z M97.25,157.73c4.14,0,7.48,0,11.08,0c0-8.1,0-15.71,0-23.31
		c-4.12,0-7.41,0-11.08,0C97.25,142.33,97.25,149.56,97.25,157.73z M171.06,183.4c0,3.93,0,7.42,0,11.1c3.98,0,7.28,0,10.5,0
		C183.63,182.69,183.23,182.24,171.06,183.4z M132.83,157.69c0-4.04,0-7.53,0-11.11c-4.04,0-7.3,0-10.71,0c0,4.1,0,7.59,0,11.11
		C126.17,157.69,129.48,157.69,132.83,157.69z M121.03,183.2c-4.18,0-7.49,0-11.31,0c0,3.96,0,7.47,0,11.05c4.11,0,7.61,0,11.31,0
		C121.03,190.42,121.03,187.3,121.03,183.2z M108.48,182.3c1.14-12.46,0.78-12.79-11.01-10.8c0,3.42,0,6.92,0,10.8
		C101.36,182.3,104.67,182.3,108.48,182.3z"/>
	<path d="M267.58,243.56c-3.7,0.31-7.4,0.63-11.55,0.98c-0.3,3.8-0.57,7.18-0.87,10.96c-3.66,0.32-7.05,0.61-10.72,0.93
		c-0.35,3.73-0.67,7.13-1.09,11.6c-7.76,0-15.44,0-23.51,0c0,4.47,0,7.86,0,11.84c3.5,0.33,6.88,0.65,11.02,1.04
		c0,3.48,0,7.03,0,11.32c-3.46,0.3-7.08,0.62-10.97,0.96c-0.34,3.78-0.64,7.19-1,11.18c-7.62,0-15.04,0-23.24,0
		c-0.42-3.31-0.88-6.93-1.41-11.09c-3.58,0-7.21,0-11.1,0c-0.33,3.68-0.63,7.11-0.99,11.1c-3.76,0-7.34,0-11.25,0
		c-0.32-3.6-0.63-7.05-1-11.06c-3.71,0-7.31,0-11.25,0c-0.32,3.58-0.63,7-1,11.02c-3.73,0-7.31,0-11.26,0c0-7.81,0-15.55,0-23.47
		c3.93-0.28,7.34-0.52,11.2-0.8c0-3.85,0-7.23,0-11.28c-3.6-0.35-7.23-0.7-11.17-1.09c-0.34-3.7-0.66-7.13-1.03-11.18
		c-3.64-0.34-7.28-0.69-11.3-1.07c0-11.81,0-23.35,0-35.42c7.89,0,15.31,0,23.36,0c0,3.74,0,7.34,0,11.24
		c-3.51,0.3-6.65,0.56-10.69,0.91c0,7.59,0,15.2,0,23.3c19.7,0,39.42,0,59.62,0c0.52-3.61,1.03-7.22,1.67-11.62
		c7.75,0,15.22,0,23.1,0c0-4.22,0-7.59,0-11.48c-3.67-0.38-7.07-0.73-11.1-1.15c0-3.61,0-7.19,0-11.32
		c3.69-0.28,7.07-0.53,10.97-0.82c0-3.69,0-7.04,0-11.12c-7.54,0-14.93,0-23.09,0c-0.45,3.34-0.94,6.94-1.47,10.92
		c-3.52,0.36-6.89,0.71-11.43,1.18c0,7.81,0,15.52,0,23.51c-8.67,0-16.14,0-24.12,0c0-3.77,0-7.14,0-11.12
		c3.74-0.46,7.34-0.9,11.2-1.38c0.35-3.68,0.68-7.08,1.06-10.99c3.65-0.37,7.01-0.71,11-1.11c0.45-3.6,0.89-7.21,1.39-11.21
		c3.67-0.33,7.04-0.64,10.89-0.99c0.49-3.8,0.97-7.43,1.56-11.99c15.96,0,31.63,0,47.31,0l-0.21-0.26c0,3.96,0,7.91,0,12.14
		c-3.77,0.46-7.1,0.86-10.73,1.3c0,3.86,0,7.21,0,11.58c7.82,0,15.21,0,23.01,0c0,8.76,0,16.51,0,24.25L267.58,243.56z
		 M170.86,292.26c4.1,0,7.45,0,11.13,0c0-4,0-7.55,0-11.35c-3.96,0-7.32,0-11.13,0C170.86,284.73,170.86,288.1,170.86,292.26z
		 M207.89,280.76c0,4.35,0,7.91,0,11.41c4.11,0,7.46,0,10.72,0c0-4.1,0-7.66,0-11.41C214.75,280.76,211.64,280.76,207.89,280.76z
		 M231.96,231.04c4.35,0,7.87,0,11.33,0c0-4.03,0-7.35,0-10.8c-4.06,0-7.55,0-11.33,0C231.96,224.09,231.96,227.21,231.96,231.04z
		 M243.21,255.49c0-3.97,0-7.3,0-10.98c-3.97,0-7.29,0-11.08,0c0,3.84,0,7.18,0,10.98C235.84,255.49,239.2,255.49,243.21,255.49z
		 M218.94,267.72c0-4.04,0-7.42,0-11.2c-4.01,0-7.6,0-11.38,0c0,3.95,0,7.33,0,11.2C211.33,267.72,214.68,267.72,218.94,267.72z"/>
	<path d="M255.31,194.8c-0.28-12.55-0.56-25.09-0.84-37.63c4.19,0.4,8.37,0.8,12.59,1.2c0-4.81,0-8.37,0-11.76
		c-4.09,0-7.44,0-10.73,0c-0.64,3.97-1.18,7.34-1.71,10.71c-3.1,0.51-6.19,1.02-9.96,1.64c-0.46,3.41-0.94,7.02-1.47,10.98
		c-3.55,0.35-6.94,0.68-10.77,1.06c-0.51,3.79-0.99,7.42-1.52,11.37c-3.69,0-7.09,0-11,0c0-3.75,0-7.12,0-11.2
		c3.48-0.36,6.82-0.71,10.94-1.15c0-3.49,0-7.07,0-11.53c-7.48,0-14.95,0-22.85,0c-0.58-4.41-1.05-8.03-1.56-11.96
		c-3.68-0.35-7.09-0.67-10.96-1.04c0-3.83,0-7.45,0-11.28c3.94,0,7.31,0,10.99,0c0.42,3.85,0.8,7.27,1.23,11.22
		c7.82,0,15.51,0,23.36,0c0.41-3.84,0.78-7.26,1.22-11.36c11.56,0,22.81,0,35.21,0c0-8.35,0-16.01,0-24.24c8.56,0,15.98,0,24.11,0
		c0,3.57,0,7.13,0,11.27c-3.43,0.25-6.81,0.49-10.85,0.78c0,3.79,0,7.34,0,11.32c3.6,0.32,6.99,0.63,10.91,0.98
		c0.37,3.56,0.73,6.93,1.2,11.46c7.54,0,15.21,0,23.24,0c0.46,4.48,0.81,7.85,1.3,12.55c3.58-0.32,7.11-0.64,10.66-0.95
		c0.01,0.01-0.11-0.12-0.11-0.12c0.23,4.37,0.45,8.75,0.68,13.12l0.24-0.19c-20.01,0-40.03,0-61.48,0c0,9.18,0,16.95,0,24.72
		l0.22-0.22c-4.17-0.01-8.34-0.02-12.5-0.03L255.31,194.8z M232.16,157.47c3.77,0,7.49,0,11.14,0c1.04-12.2,0.66-12.54-11.14-10.42
		C232.16,150.29,232.16,153.62,232.16,157.47z"/>
	<path d="M84.78,84.72c-28.48,0-56.55,0-84.99,0c0-28.38,0-56.25,0-84.61c28.45,0,56.53,0,84.99,0
		C84.78,28.51,84.78,56.33,84.78,84.72z M12.43,12.21c0,20.57,0,40.44,0,60.09c20.42,0,40.08,0,59.85,0c0-20.39,0-40.03,0-60.09
		C52.15,12.21,32.68,12.21,12.43,12.21z"/>
	<path d="M402.21,0.11c0,28.35,0,56.22,0,84.61c-28.43,0-56.51,0-84.99,0c0-28.39,0-56.21,0-84.61
		C345.68,0.11,373.76,0.11,402.21,0.11z M329.74,12.21c0,20.74,0,40.37,0,60.27c20.34,0,40.01,0,59.82,0c0-20.45,0-40.31,0-60.27
		C369.32,12.21,349.85,12.21,329.74,12.21z"/>
	<path d="M84.53,402.56c-28.49,0-56.33,0-84.63,0c0-28.45,0-56.48,0-84.93c28.31,0,56.14,0,84.63,0
		C84.53,345.75,84.53,373.78,84.53,402.56z M12.03,390.27c20.66,0,40.31,0,60.36,0c0-20.32,0-40.19,0-60.21c-20.43,0-40.3,0-60.36,0
		C12.03,350.33,12.03,370,12.03,390.27z"/>
	<path d="M48.87,145.75c-0.32-3.7-0.65-7.4-1.04-11.89c-7.84,0-15.3,0-23.61,0c0-8.25,0-15.7,0-23.88c-4.39,0-7.93,0-12.36,0
		c0,7.51,0,14.97,0,23.07c-4.41,0-7.96,0-11.98,0c0-11.77,0-23.32,0-35.47c19.92,0,39.61,0,60.1,0c0.38,3.46,0.78,7.06,1.27,11.41
		c4.15,0,8.14,0,12.13,0c0,0-0.24-0.19-0.24-0.19c-0.01,4.16-0.01,8.33-0.02,12.49l0.27-0.27c-3.98,0.34-7.96,0.67-12.02,1.02
		c0,4.13,0,7.7,0,11.49c4.45,0,8.22,0,11.98,0l-0.22-0.22c-0.01,4.16-0.01,8.33-0.02,12.49c0,0,0.27-0.27,0.27-0.27
		c-8.25,0.01-16.5,0.02-24.76,0.03C48.63,145.56,48.87,145.75,48.87,145.75z"/>
	<path d="M73.45,243.49c-8.06,0-16.12,0-24.59,0c-0.3-3.75-0.56-7.12-0.92-11.58c-16.03,0-31.85,0-48.08,0c0-4.46,0-7.82,0-11.71
		c3.77-0.45,7.38-0.88,11.37-1.35c0-3.73,0-7.08,0-11c-3.67-0.34-7.06-0.66-11.13-1.04c0-3.52,0-7.11,0-11.28
		c7.51,0,14.94,0,23.53,0c0,7.67,0,15.34,0,23.45c4.49,0,7.85,0,12.37,0c0-7.71,0-15.37,0-24.14c17.34,0,33.55,0,49.77,0
		c0,0-0.22-0.2-0.21-0.2c-0.06,4.12-0.12,8.23-0.18,12.35l0.26-0.21c-7.97,0-15.94,0-24.42,0c0,8.95,0,16.53,0,24.46
		c4.36,0,8.3,0,12.23,0c-0.11,4.19-0.22,8.38-0.33,12.57L73.45,243.49z"/>
	<path d="M328.63,170.25c3.73,0,7.46,0,11.89,0c0.48,4.2,0.88,7.77,1.34,11.86c3.51,0.36,6.86,0.71,11.27,1.16
		c0,7.84,0,15.79,0,23.74l0.24-0.19c-8.25,0.07-16.5,0.14-24.75,0.22c0-3.85,0-7.71,0-11.5c-4.32,0-7.63,0-11.39,0
		c-0.24,4.18-0.45,7.84-0.66,11.51c-7.95,0-15.9,0-23.69,0c-0.48,5.12-0.79,8.48-1.09,11.69c-4.17,0-7.71,0-11.22,0
		c-0.42-4.09-0.77-7.43-1.13-10.96c-4.06-0.46-7.64-0.86-11.83-1.34c0-4.42,0-8.15,0-11.88l-0.22,0.22c12.29,0,24.58,0,36.69,0
		c0.45-4.65,0.78-8.01,1.21-12.38c8.17,0,15.81,0,23.58,0c0-4.84,0-8.59,0-12.35L328.63,170.25z"/>
	<path d="M279.82,268.33c0-3.72,0-7.44,0-11.82c-3.71-0.33-7.31-0.65-11.57-1.02c-0.23-4.07-0.45-8-0.67-11.93
		c0,0-0.19,0.24-0.19,0.24c3.98,0,7.95,0,12.13,0c0.45-4.37,0.83-7.98,1.19-11.5c4.11,0,7.47,0,11.11,0
		c0.34,3.89,0.63,7.27,0.97,11.15c3.93,0,7.5,0,11.26,0c0.43-4.08,0.82-7.69,1.18-11.1c4.15,0,7.49,0,11.7,0c0,8,0,15.43,0,23.04
		c4.47,0.44,8.09,0.79,11.69,1.14c0,4.33,0,8.07,0,11.81l0.25-0.25c-7.98,0-15.97,0-23.95,0c-0.3-4.68-0.52-8.06-0.75-11.5
		c-4.17,0-7.72,0-11.56,0c-0.22,3.98-0.41,7.37-0.65,11.5c-4.4,0-8.38,0-12.35,0L279.82,268.33z"/>
	<path d="M-0.11,244.5c12.32,0,23.79,0,35.77,0c0,7.89,0,15.27,0,23.4c-7.72,0-15.16,0-23.61,0c0,12.4,0,24.12,0,36.44
		c-4.57,0-8.12,0-12.16,0C-0.11,284.54-0.11,264.9-0.11,244.5z"/>
	<path d="M352.76,390.26c0.47-3.64,0.94-7.28,1.48-11.39c3.54-0.23,6.93-0.45,10.91-0.71c0-7.99,0-15.93-0.02-23.85
		c-0.02,0.02-0.28,0.24-0.3,0.25c8.29,0.01,16.6,0.01,25.09,0.01c0.3-4.93,0.51-8.32,0.75-12.26c3.89,0,7.44,0,11.46,0
		c0,7.68,0,15.12,0,23.55c-7.54,0-15.19,0-23.27,0c-0.68,9.15-1.29,17.36-1.9,25.58l0.2-0.16c-8.2-0.41-16.4-0.82-24.6-1.23
		L352.76,390.26z"/>
	<path d="M85.38,207c3.45,0.2,6.91,0.4,10.79,0.62c0.41,3.68,0.79,7.08,1.29,11.61c7.56,0,15.19,0,23.34,0c0,12.64,0,24.15,0,36.19
		c-3.74,0-7.32,0-11.86,0c0-7.77,0-15.21,0-23.15c-4.28,0-7.62,0-11.43,0c-0.4,3.6-0.78,6.98-1.25,11.28c-3.64,0-7.25,0-10.85,0
		l0.19,0.24c-0.07-4.16-0.15-8.33-0.22-12.49c3.64,0,7.29,0,10.85,0c0-4.26,0-7.62,0-11.41c-3.99-0.24-7.42-0.44-10.86-0.64
		c0.09-4.15,0.18-8.31,0.26-12.46L85.38,207z"/>
	<path d="M60.19,304.59c-12.11,0-23.61,0-35.69,0c0-7.94,0-15.58,0-23.68c3.64,0,7.01,0,11.1,0c0.33,3.57,0.66,7.2,1.03,11.3
		c3.78,0,7.36,0,11.45,0c0.22-3.82,0.42-7.22,0.65-11.17c3.77,0,7.36,0,11.46,0C60.19,288.68,60.19,296.12,60.19,304.59z"/>
	<path d="M365.38,109.02c3.76,0,7.52,0,12.02,0c0.4-3.7,0.8-7.3,1.25-11.45c3.55,0,6.89,0,10.98,0c0.39,3.44,0.81,7.04,1.27,11.06
		c3.6,0.35,6.97,0.68,10.99,1.08c0,3.68,0,7.23,0,11.38c-3.46,0.26-6.84,0.51-10.87,0.81c-0.41,3.75-0.81,7.36-1.25,11.33
		c-4.26,0-8.24,0-12.22,0c0,0,0.34,0.32,0.34,0.32c0-3.88,0-7.75,0-11.64c-5.08-0.36-8.8-0.62-12.53-0.88l0.26,0.21
		c-0.01-4.15-0.02-8.3-0.03-12.44L365.38,109.02z"/>
	<path d="M304.09,96.73c3.96,0.21,7.93,0.43,12.17,0.66c0.35,3.89,0.65,7.25,1.06,11.82c3.75-0.32,7.28-0.62,10.81-0.92l-0.15-0.15
		c0.4,4.19,0.8,8.38,1.23,12.86c-4.53,0.36-7.92,0.62-11.78,0.93c-0.36,3.74-0.69,7.12-1.09,11.14c-3.55,0-7.13,0-12.04,0
		c0-12.29,0-24.42,0-36.56C304.31,96.52,304.09,96.73,304.09,96.73z"/>
	<path d="M364.74,144.9c0.45,3.94,0.9,7.87,1.41,12.24c-13.23,0-25.71,0-38.19-0.01c-0.01-0.01,0.11,0.12,0.1,0.11
		c0.53-7.41,1.08-14.8,1.68-22.85c3.35,0,6.67,0,10.87,0c0.37,3.19,0.79,6.76,1.38,11.75c7.67-0.37,15.29-0.73,22.91-1.09
		L364.74,144.9z"/>
	<path d="M377.63,243.79c3.72,0,7.44,0,11.88,0c0.48,4.13,0.9,7.67,1.38,11.72c3.58,0.26,6.95,0.51,10.99,0.8c0,3.54,0,7.1,0,11.36
		c-3.32,0.31-6.92,0.65-10.97,1.04c-0.37,3.76-0.73,7.36-1.15,11.62c-4.24,0-8.2,0-12.17,0c0,0,0.28,0.26,0.28,0.26
		c0-12.34-0.01-24.67-0.01-37.01L377.63,243.79z"/>
	<path d="M48.95,157.73c-3.99,0.35-7.98,0.7-12.23,1.07c-0.36,3.8-0.68,7.18-1.05,11.1c-3.62,0-6.97,0-11.11,0
		c-0.37-3.33-0.77-6.93-1.22-11.04c-3.57-0.35-6.96-0.69-11-1.09c0-3.52,0-7.11,0-12.02c12.25,0,24.39,0,36.53,0
		c0,0-0.24-0.19-0.24-0.19c-0.01,4.16-0.01,8.33-0.02,12.49L48.95,157.73z"/>
	<path d="M377.47,194.94c3.99,0,7.98,0,12.24,0c0.41,4.37,0.73,7.75,1.09,11.65c3.56,0.37,6.92,0.72,11.02,1.15
		c0,3.53,0,7.09,0,11.27c-3.27,0.27-6.64,0.55-10.78,0.89c-0.4,3.61-0.8,7.22-1.32,11.96c-4.35-0.42-8.54-0.82-12.72-1.22
		c0,0,0.15,0.15,0.15,0.15c0.18-12.03,0.36-24.06,0.55-36.1C377.7,194.71,377.47,194.94,377.47,194.94z"/>
	<path d="M353.13,207.01c3.73,0,7.47,0,12.25,0c0,8.61,0,16.56,0,24.5c0,0,0.24-0.19,0.24-0.19c-7.97,0-15.94,0-23.68,0
		c0-4.42,0-7.75,0-11.28c4.16-0.45,7.75-0.83,11.43-1.23c0-4.5,0-8.25,0-12L353.13,207.01z"/>
	<path d="M377.14,181.79c0.5-7.44,1.01-14.88,1.55-22.94c7.55,0,14.96,0,23.12,0c0,3.46,0,7,0,11.18
		c-3.27,0.26-6.65,0.53-10.78,0.86c-0.4,3.64-0.8,7.24-1.32,11.98c-4.36-0.42-8.54-0.82-12.73-1.23
		C377,181.64,377.14,181.79,377.14,181.79z"/>
	<path d="M108.54,84.84c-3.88,0-7.21,0-11.12,0c0-7.76,0-15.12,0-23.27c3.5,0,7.02,0,11.12,0
		C108.54,69.01,108.54,76.38,108.54,84.84z"/>
	<path d="M86.3,293.4c-0.03-4.51-0.06-9.03-0.11-13.53c-0.01,0.01-0.27,0.23-0.27,0.23c7.26,0,14.51,0,22.47,0
		c0,4.31,0,7.89,0,13.13c-7.43,0-14.86,0-22.3,0L86.3,293.4z"/>
	<path d="M389.44,316.7c0.48-7.71,0.97-15.41,1.48-23.54c3.68,0,7.05,0,11.04,0c0,7.65,0,15.31,0,24.06
		c-4.29-0.23-8.5-0.45-12.72-0.68C389.22,316.53,389.44,316.7,389.44,316.7z"/>
	<path d="M352.55,390.03c0.41,3.94,0.82,7.88,1.34,12.95c-4.88,0-8.87,0-12.85,0c-3.7,0-7.41,0-11.53,0c0-4.29,0-7.65,0-12.69
		c7.82,0,15.55,0,23.26-0.01C352.76,390.26,352.55,390.03,352.55,390.03z"/>
	<path d="M181.93,35.97c-3.96,0-7.07,0-10.86,0c0-3.81,0-7.33,0-11.39c3.54,0,6.86,0,10.86,0
		C181.93,28.16,181.93,31.69,181.93,35.97z"/>
	<path d="M232.07,11.19c0-3.85,0-7.17,0-11.06c3.68,0,7,0,11.07,0c0,3.43,0,6.95,0,11.06C239.75,11.19,236.43,11.19,232.07,11.19z"
		/>
	<path d="M133.11,280.13c-3.86,0-7.23,0-11.17,0c0-3.76,0-7.34,0-11.42c3.73,0,7.26,0,11.17,0
		C133.11,272.63,133.11,276.22,133.11,280.13z"/>
	<path d="M171.07,133.99c3.92,0,7.05,0,10.86,0c0,3.82,0,7.39,0,11.47c-3.49,0-6.83,0-10.86,0
		C171.07,141.9,171.07,138.36,171.07,133.99z"/>
	<path d="M377,181.64c0.16,4.43,0.32,8.86,0.48,13.3c0,0,0.22-0.23,0.22-0.23c-3.66,0-7.32,0-11.42,0c0-4.04,0-7.38,0-11.18
		c3.75-0.59,7.32-1.15,10.88-1.72C377.14,181.79,377,181.64,377,181.64z"/>
	<path d="M377,230.66c0.21,4.38,0.42,8.76,0.63,13.14c0,0,0.24-0.22,0.24-0.22c-3.86,0-7.72,0-12.25,0c0-4.81,0-8.53,0-12.25
		c0,0-0.24,0.19-0.24,0.19c3.93-0.22,7.86-0.45,11.78-0.69C377.15,230.81,377,230.66,377,230.66z"/>
	<path d="M85.42,243.56c0,3.72,0,7.44,0,11.72c-4.34,0.45-7.95,0.83-11.57,1.2l0.2,0.17c-0.2-4.39-0.4-8.77-0.6-13.16
		c0,0-0.34,0.32-0.34,0.32c4.16-0.01,8.33-0.01,12.49-0.02L85.42,243.56z"/>
	<path d="M73.85,256.48c-0.03,3.75-0.06,7.5-0.09,11.25c0,0,0.21-0.23,0.21-0.23c-3.99,0.28-7.98,0.57-12.63,0.9
		c0-4.27,0-7.82,0-12.46c4.26,0.23,8.47,0.46,12.7,0.69C74.05,256.65,73.85,256.48,73.85,256.48z"/>
	<path d="M73.76,267.73c3.39,0.28,6.78,0.55,10.73,0.87c0.46,3.83,0.93,7.68,1.41,11.52c0.02-0.02,0.28-0.23,0.29-0.24
		c-3.98,0.23-7.97,0.47-13.4,0.79c0.43-4.9,0.79-9.02,1.16-13.15C73.96,267.5,73.76,267.73,73.76,267.73z"/>
	<path d="M328.13,108.29c0.54-3.37,1.08-6.74,1.71-10.71c3.28,0,6.62,0,10.73,0c0,3.4,0,6.97,0,11.76c-4.21-0.4-8.39-0.79-12.59-1.2
		C327.98,108.15,328.13,108.29,328.13,108.29z"/>
	<path d="M86.09,293.23c-0.46,3.4-0.92,6.8-1.48,10.97c-3.28,0-6.85,0-11.05,0c0-3.29,0-6.87,0-11.51
		c4.27,0.23,8.49,0.45,12.72,0.69C86.3,293.4,86.09,293.23,86.09,293.23z"/>
	<path d="M365.6,108.79c-3.69,0-7.38,0-11.54,0c0-3.82,0-7.17,0-11.17c3.52,0,6.86,0,11.32,0c0,3.63,0,7.51,0,11.4
		C365.38,109.02,365.6,108.79,365.6,108.79z"/>
	<path d="M365.59,133.29c-3.66,0-7.31,0-11.49,0c0-3.68,0-7,0-11.26c3.77-0.26,7.65-0.53,11.53-0.79c0,0-0.26-0.21-0.26-0.21
		c0.01,4.17,0.02,8.34,0.03,12.51L365.59,133.29z"/>
	<path d="M364.89,145.05c0.23-3.92,0.47-7.84,0.7-11.77c0,0-0.19,0.24-0.19,0.24c4.16,0.01,8.33,0.01,12.49,0.02
		c0,0-0.34-0.32-0.34-0.32c0,3.93,0,7.86,0,12.95c-4.53-0.44-8.66-0.84-12.81-1.25C364.74,144.9,364.89,145.05,364.89,145.05z"/>
	<path d="M279.56,341.56c0.2,3.68,0.39,7.36,0.66,12.27c-4.61,0-8.75,0-12.89,0c0,0,0.28,0.26,0.28,0.26c0-4.16,0-8.33,0-12.49
		l-0.25,0.25c4.17,0,8.33,0,12.5,0L279.56,341.56z"/>
	<path d="M61.19,169.96c-3.95,0-7.91,0-12.24,0c0-4.33,0-8.29,0-12.24c0,0-0.34,0.32-0.34,0.32c3.71,0.19,7.42,0.38,11.66,0.59
		c0.22,4.24,0.41,7.95,0.59,11.66L61.19,169.96z"/>
	<path d="M304.16,391.35c0,4.01,0,7.37,0,11.17c-3.73,0-7.08,0-11.14,0c0-3.46,0-7,0-11.17
		C296.41,391.35,299.96,391.35,304.16,391.35z"/>
	<path d="M-0.13,182.1c0-3.62,0-6.98,0-10.98c3.71,0,7.26,0,11.3,0c0,3.67,0,7.01,0,10.98C7.45,182.1,3.88,182.1-0.13,182.1z"/>
	<path d="M376.95,391.43c4-0.28,7.99-0.57,12.7-0.9c0,4.2,0,7.77,0,11.9c-3.5,0-7.08,0-10.9,0c-0.55-3.93-1.05-7.57-1.58-11.18
		C377.15,391.26,376.95,391.43,376.95,391.43z"/>
	<path d="M316.36,206.78c4.17,0.01,8.34,0.02,12.51,0.03c0,3.77,0,7.54,0,11.98c-3.79,0-7.36,0-11.49,0
		C317.03,214.75,316.7,210.77,316.36,206.78z"/>
	<path d="M352.74,256.43c-3.43-0.29-6.86-0.57-10.85-0.9c0-3.49,0-6.82,0-11.13c3.31-0.15,6.66-0.3,11.63-0.52
		c-0.35,4.59-0.66,8.67-0.98,12.77C352.54,256.66,352.74,256.43,352.74,256.43z"/>
	<path d="M317.33,317.64c3.77,0,7.11,0,11.1,0c0,3.57,0,7.13,0,11.26c-3.47,0-7.02,0-11.1,0
		C317.33,325.37,317.33,322.03,317.33,317.64z"/>
	<path d="M24.62,24.65c11.89,0,23.63,0,35.62,0c0,12.1,0,23.58,0,35.6c-11.93,0-23.43,0-35.62,0
		C24.62,48.43,24.62,36.75,24.62,24.65z"/>
	<path d="M341.77,60.18c0-12.09,0-23.57,0-35.6c11.93,0,23.42,0,35.62,0c0,11.82,0,23.5,0,35.6
		C365.51,60.18,353.76,60.18,341.77,60.18z"/>
	<path d="M24.27,377.76c0-11.96,0-23.46,0-35.5c12.04,0,23.73,0,35.93,0c0,11.82,0,23.3,0,35.5
		C48.53,377.76,36.85,377.76,24.27,377.76z"/>
	<path d="M85.64,219.04c-0.01,4.17-0.02,8.34-0.03,12.51c-4.16,0.01-8.33,0.01-12.49,0.02c0-3.69,0-7.38,0-11.5
		C77.72,219.69,81.68,219.36,85.64,219.04z"/>
</g>
</svg>
